<svg xmlns="http://www.w3.org/2000/svg" version="1.1" baseProfile="full"
     width="340" height="340" viewBox="80 80 340 340">
    <defs>
        <!-- Gold ring gradients -->
        <linearGradient id="goldFill" x1="120" y1="120" x2="380" y2="380" gradientUnits="userSpaceOnUse">
            <stop offset="0" stop-color="#FFE28A"/>
            <stop offset="0.35" stop-color="#F6C33B"/>
            <stop offset="0.6" stop-color="#DCA10C"/>
            <stop offset="1" stop-color="#A66B00"/>
        </linearGradient>
        <radialGradient id="goldSheen" cx="200" cy="150" r="220" gradientUnits="userSpaceOnUse">
            <stop offset="0" stop-color="#FFFFFF" stop-opacity="0.85"/>
            <stop offset="0.4" stop-color="#FFFFFF" stop-opacity="0"/>
            <stop offset="1" stop-color="#FFFFFF" stop-opacity="0"/>
        </radialGradient>
        <!-- Darker steel gradient for chain links -->
        <linearGradient id="steel" x1="0%" y1="0%" x2="0%" y2="100%">
            <stop offset="0%" stop-color="#B7BEC8"/>
            <stop offset="35%" stop-color="#7F8894"/>
            <stop offset="60%" stop-color="#4B535B"/>
            <stop offset="100%" stop-color="#98A1AB"/>
        </linearGradient>
        <!-- Spark/glint shape -->
        <g id="glint">
            <path d="M0,-6 L0,6 M-6,0 L6,0" stroke="#FFFFFF" stroke-width="2.5" stroke-linecap="round" fill="none"/>
            <path d="M0,-10 L0,10 M-10,0 L10,0" stroke="#FFE78A" stroke-width="1.5" stroke-linecap="round" opacity="0.9"
                  fill="none"/>
        </g>
        <!-- Clip so the chain never touches the ring (keeps a clean gap) -->
        <clipPath id="holeClip" clipPathUnits="userSpaceOnUse">
            <circle cx="250" cy="250" r="105"/>
        </clipPath>
    </defs>

    <!-- Two links aligned along the top-right to bottom-left diagonal, clipped so they don't touch the ring -->
    <g clip-path="url(#holeClip)">
        <g transform="rotate(-45 250 250)">
            <!-- Link A (darker gradient) -->
            <g transform="translate(-52 0)">
                <rect x="165" y="209" width="170" height="82" rx="41" ry="41"
                      fill="none" stroke="url(#steel)" stroke-width="24" stroke-linecap="round"
                      stroke-linejoin="round"/>
                <rect x="165" y="209" width="170" height="82" rx="41" ry="41"
                      fill="none" stroke="#FFFFFF" stroke-opacity="0.35" stroke-width="6" stroke-linecap="round"
                      stroke-linejoin="round"
                      transform="translate(0,-3)"/>
            </g>
            <!-- Link B (darker gradient; same orientation as Link A) -->
            <g transform="translate(52 0)">
                <rect x="165" y="209" width="170" height="82" rx="41" ry="41"
                      fill="none" stroke="url(#steel)" stroke-width="24" stroke-linecap="round"
                      stroke-linejoin="round"/>
                <rect x="165" y="209" width="170" height="82" rx="41" ry="41"
                      fill="none" stroke="#FFFFFF" stroke-opacity="0.35" stroke-width="6" stroke-linecap="round"
                      stroke-linejoin="round"
                      transform="translate(0,-3)"/>
            </g>
        </g>
    </g>

    <!-- Golden ring (outer outline removed; background transparent) -->
    <g filter="url(#softShadow)">
        <path d="
      M250,250
      m-170,0
      a170,170 0 1,0 340,0
      a170,170 0 1,0 -340,0
      M250,250
      m-115,0
      a115,115 0 1,1 230,0
      a115,115 0 1,1 -230,0
    " fill="url(#goldFill)" fill-rule="evenodd" stroke="none"/>
        <!-- soft inner rim shade for depth -->
        <circle cx="250" cy="250" r="115" fill="none" stroke="url(#innerShade)" stroke-width="24"/>
        <!-- glossy sheen -->
        <path d="
      M250,250
      m-170,0
      a170,170 0 1,0 340,0
      a170,170 0 1,0 -340,0
      M250,250
      m-115,0
      a115,115 0 1,1 230,0
      a115,115 0 1,1 -230,0
    " fill="url(#goldSheen)" fill-rule="evenodd" opacity="0.55"/>
    </g>
</svg>
